<?xml version="1.0" encoding="UTF-8" standalone="no"?>
<svg width="60px" height="48px" viewBox="0 0 60 48" version="1.1" xmlns="http://www.w3.org/2000/svg" xmlns:xlink="http://www.w3.org/1999/xlink" xmlns:sketch="http://www.bohemiancoding.com/sketch/ns">
    <!-- Generator: Sketch 3.3.2 (12043) - http://www.bohemiancoding.com/sketch -->
    <title>Slice 1</title>
    <desc>Created with Sketch.</desc>
    <defs></defs>
    <g id="Page-1" stroke="none" stroke-width="1" fill="none" fill-rule="evenodd" sketch:type="MSPage">
        <rect id="Rectangle-104" fill="#D2D2D2" sketch:type="MSShapeGroup" x="0" y="0" width="60" height="48"></rect>
        <path d="M38.5970982,19.3928571 C38.5970982,19.5186018 38.5487356,19.6298358 38.4520089,19.7265625 L31.6908482,26.4877232 C31.5941215,26.5844499 31.4828875,26.6328125 31.3571429,26.6328125 C31.2313982,26.6328125 31.1201642,26.5844499 31.0234375,26.4877232 L24.2622768,19.7265625 C24.1655501,19.6298358 24.1171875,19.5186018 24.1171875,19.3928571 C24.1171875,19.2671125 24.1655501,19.1558785 24.2622768,19.0591518 L24.9877232,18.3337054 C25.0844499,18.2369787 25.1956839,18.1886161 25.3214286,18.1886161 C25.4471732,18.1886161 25.5584073,18.2369787 25.6551339,18.3337054 L31.3571429,24.0357143 L37.0591518,18.3337054 C37.1558785,18.2369787 37.2671125,18.1886161 37.3928571,18.1886161 C37.5186018,18.1886161 37.6298358,18.2369787 37.7265625,18.3337054 L38.4520089,19.0591518 C38.5487356,19.1558785 38.5970982,19.2671125 38.5970982,19.3928571 L38.5970982,19.3928571 Z" id="" fill="#FFFFFF" sketch:type="MSShapeGroup"></path>
    </g>
</svg>