<?xml version="1.0" encoding="UTF-8" standalone="no"?>
<svg width="21px" height="21px" viewBox="0 0 21 21" version="1.1" xmlns="http://www.w3.org/2000/svg" xmlns:xlink="http://www.w3.org/1999/xlink" xmlns:sketch="http://www.bohemiancoding.com/sketch/ns">
    <!-- Generator: Sketch 3.3.2 (12043) - http://www.bohemiancoding.com/sketch -->
    <title>Slice 1</title>
    <desc>Created with Sketch.</desc>
    <defs></defs>
    <g id="Page-1" stroke="none" stroke-width="1" fill="none" fill-rule="evenodd" sketch:type="MSPage">
        <g id="CHECKBOX-TEAL-Copy" sketch:type="MSLayerGroup">
            <rect id="Rectangle-7-Copy-7" fill="#000000" sketch:type="MSShapeGroup" x="0.0360514004" y="0.12832421" width="20" height="20"></rect>
            <path d="M15.1876825,6.79886803 C15.1876825,6.97744035 15.1251831,7.12922455 15.0001825,7.25422517 L10.1519682,12.1024395 L9.24125388,13.0131537 C9.11625326,13.1381544 8.96446906,13.2006537 8.78589674,13.2006537 C8.60732442,13.2006537 8.45554022,13.1381544 8.3305396,13.0131537 L7.41982531,12.1024395 L4.99571817,9.67833232 C4.87071754,9.55333169 4.80821817,9.40154749 4.80821817,9.22297517 C4.80821817,9.04440285 4.87071754,8.89261865 4.99571817,8.76761803 L5.90643246,7.85690374 C6.03143308,7.73190312 6.18321728,7.66940374 6.3617896,7.66940374 C6.54036192,7.66940374 6.69214612,7.73190312 6.81714674,7.85690374 L8.78589674,9.83235017 L13.1787539,5.4327966 C13.3037545,5.30779598 13.4555387,5.2452966 13.634111,5.2452966 C13.8126833,5.2452966 13.9644675,5.30779598 14.0894682,5.4327966 L15.0001825,6.34351089 C15.1251831,6.46851151 15.1876825,6.62029571 15.1876825,6.79886803 L15.1876825,6.79886803 Z" id="-copy" fill="#FFFFFF" sketch:type="MSShapeGroup"></path>
        </g>
    </g>
</svg>