<?xml version="1.0" encoding="UTF-8" standalone="no"?>
<svg width="61px" height="50px" viewBox="0 0 61 50" version="1.1" xmlns="http://www.w3.org/2000/svg" xmlns:xlink="http://www.w3.org/1999/xlink" xmlns:sketch="http://www.bohemiancoding.com/sketch/ns">
    <!-- Generator: Sketch 3.3.2 (12043) - http://www.bohemiancoding.com/sketch -->
    <title>Slice 1</title>
    <desc>Created with Sketch.</desc>
    <defs></defs>
    <g id="Page-1" stroke="none" stroke-width="1" fill="none" fill-rule="evenodd" sketch:type="MSPage">
        <rect id="Rectangle-104" fill="#D2D2D2" sketch:type="MSShapeGroup" x="0" y="0" width="60.9684213" height="49.177706"></rect>
        <path d="M38.7142857,28.6785714 L38.7142857,20.9642857 C38.4999989,21.2053583 38.2689745,21.4263383 38.0212054,21.6272321 C36.2265535,23.0067033 34.8002285,24.1383884 33.7421875,25.0223214 C33.4006679,25.3102693 33.1227689,25.5345974 32.9084821,25.6953125 C32.6941954,25.8560276 32.4045777,26.0184144 32.0396205,26.1824777 C31.6746634,26.346541 31.3314748,26.4285714 31.0100446,26.4285714 L31,26.4285714 L30.9899554,26.4285714 C30.6685252,26.4285714 30.3253366,26.346541 29.9603795,26.1824777 C29.5954223,26.0184144 29.3058046,25.8560276 29.0915179,25.6953125 C28.8772311,25.5345974 28.5993321,25.3102693 28.2578125,25.0223214 C27.1997715,24.1383884 25.7734465,23.0067033 23.9787946,21.6272321 C23.7310255,21.4263383 23.5000011,21.2053583 23.2857143,20.9642857 L23.2857143,28.6785714 C23.2857143,28.7656254 23.317522,28.8409595 23.3811384,28.9045759 C23.4447548,28.9681923 23.5200889,29 23.6071429,29 L38.3928571,29 C38.4799111,29 38.5552452,28.9681923 38.6188616,28.9045759 C38.682478,28.8409595 38.7142857,28.7656254 38.7142857,28.6785714 L38.7142857,28.6785714 Z M38.7142857,18.1216518 L38.7142857,18.0111607 L38.7142857,17.875558 C38.7142857,17.845424 38.7126116,17.8018976 38.7092634,17.7449777 C38.7059152,17.6880578 38.6958706,17.6462055 38.6791295,17.6194196 C38.6623883,17.5926338 38.6439733,17.5625002 38.6238839,17.5290179 C38.6037945,17.4955355 38.5736609,17.4704242 38.5334821,17.453683 C38.4933034,17.4369419 38.4464288,17.4285714 38.3928571,17.4285714 L23.6071429,17.4285714 C23.5200889,17.4285714 23.4447548,17.4603791 23.3811384,17.5239955 C23.317522,17.5876119 23.2857143,17.662946 23.2857143,17.75 C23.2857143,18.8750056 23.7778969,19.825889 24.7622768,20.6026786 C26.054694,21.6205408 27.3973145,22.6819141 28.7901786,23.7868304 C28.8303573,23.8203127 28.9475437,23.919084 29.1417411,24.0831473 C29.3359385,24.2472106 29.4899548,24.3727674 29.6037946,24.4598214 C29.7176345,24.5468754 29.8666285,24.6523431 30.0507812,24.7762277 C30.234934,24.9001122 30.4040171,24.9921872 30.5580357,25.0524554 C30.7120543,25.1127235 30.8560261,25.1428571 30.9899554,25.1428571 L31,25.1428571 L31.0100446,25.1428571 C31.1439739,25.1428571 31.2879457,25.1127235 31.4419643,25.0524554 C31.5959829,24.9921872 31.765066,24.9001122 31.9492188,24.7762277 C32.1333715,24.6523431 32.2823655,24.5468754 32.3962054,24.4598214 C32.5100452,24.3727674 32.6640615,24.2472106 32.8582589,24.0831473 C33.0524563,23.919084 33.1696427,23.8203127 33.2098214,23.7868304 C34.6026855,22.6819141 35.945306,21.6205408 37.2377232,20.6026786 C37.5993322,20.3147307 37.9358243,19.9280158 38.2472098,19.4425223 C38.5585953,18.9570288 38.7142857,18.516743 38.7142857,18.1216518 L38.7142857,18.1216518 Z M40,17.75 L40,28.6785714 C40,29.1205379 39.8426355,29.4988824 39.5279018,29.8136161 C39.2131681,30.1283498 38.8348236,30.2857143 38.3928571,30.2857143 L23.6071429,30.2857143 C23.1651764,30.2857143 22.7868319,30.1283498 22.4720982,29.8136161 C22.1573645,29.4988824 22,29.1205379 22,28.6785714 L22,17.75 C22,17.3080335 22.1573645,16.9296891 22.4720982,16.6149554 C22.7868319,16.3002216 23.1651764,16.1428571 23.6071429,16.1428571 L38.3928571,16.1428571 C38.8348236,16.1428571 39.2131681,16.3002216 39.5279018,16.6149554 C39.8426355,16.9296891 40,17.3080335 40,17.75 L40,17.75 Z" id="" fill="#FFFFFF" sketch:type="MSShapeGroup"></path>
    </g>
</svg>