<?xml version="1.0" encoding="UTF-8" standalone="no"?>
<svg width="61px" height="50px" viewBox="0 0 61 50" version="1.1" xmlns="http://www.w3.org/2000/svg" xmlns:xlink="http://www.w3.org/1999/xlink" xmlns:sketch="http://www.bohemiancoding.com/sketch/ns">
    <!-- Generator: Sketch 3.3.2 (12043) - http://www.bohemiancoding.com/sketch -->
    <title>Slice 1</title>
    <desc>Created with Sketch.</desc>
    <defs></defs>
    <g id="Page-1" stroke="none" stroke-width="1" fill="none" fill-rule="evenodd" sketch:type="MSPage">
        <rect id="Rectangle-104" fill="#D2D2D2" sketch:type="MSShapeGroup" x="0" y="0" width="60.9684213" height="49.177706"></rect>
        <path d="M29.8571429,23.1428571 L34.4285714,23.1428571 L34.4285714,21.4285714 C34.4285714,20.7976159 34.2053594,20.2589308 33.7589286,19.8125 C33.3124978,19.3660692 32.7738127,19.1428571 32.1428571,19.1428571 C31.5119016,19.1428571 30.9732165,19.3660692 30.5267857,19.8125 C30.0803549,20.2589308 29.8571429,20.7976159 29.8571429,21.4285714 L29.8571429,23.1428571 Z M37.2857143,24 L37.2857143,29.1428571 C37.2857143,29.3809536 37.2023818,29.5833325 37.0357143,29.75 C36.8690468,29.9166675 36.6666679,30 36.4285714,30 L27.8571429,30 C27.6190464,30 27.4166675,29.9166675 27.25,29.75 C27.0833325,29.5833325 27,29.3809536 27,29.1428571 L27,24 C27,23.7619036 27.0833325,23.5595246 27.25,23.3928571 C27.4166675,23.2261896 27.6190464,23.1428571 27.8571429,23.1428571 L28.1428571,23.1428571 L28.1428571,21.4285714 C28.1428571,20.3333279 28.5357104,19.3928611 29.3214286,18.6071429 C30.1071468,17.8214246 31.0476136,17.4285714 32.1428571,17.4285714 C33.2381007,17.4285714 34.1785675,17.8214246 34.9642857,18.6071429 C35.7500039,19.3928611 36.1428571,20.3333279 36.1428571,21.4285714 L36.1428571,23.1428571 L36.4285714,23.1428571 C36.6666679,23.1428571 36.8690468,23.2261896 37.0357143,23.3928571 C37.2023818,23.5595246 37.2857143,23.7619036 37.2857143,24 L37.2857143,24 Z" id="" fill="#FFFFFF" sketch:type="MSShapeGroup"></path>
    </g>
</svg>